<svg viewBox="0 0 176 138" fill="none" xmlns="http://www.w3.org/2000/svg">
<path d="M164.825 0.555878H11.1748C5.00359 0.555878 0 5.55916 0 11.7303V126.27C0 132.441 5.00359 137.444 11.1748 137.444H164.825C170.996 137.444 176 132.441 176 126.27V11.7303C176 5.55916 170.997 0.555878 164.825 0.555878ZM164.825 11.7303V93.0003L142.803 72.9782C139.493 69.9695 134.402 70.0896 131.24 73.2549L108.952 95.5396L65.0055 43.047C61.6836 39.08 55.599 39.041 52.2273 42.9604L11.1748 90.6706V11.7303H164.825ZM117.333 41.0637C117.333 32.5765 124.211 25.6985 132.698 25.6985C141.185 25.6985 148.063 32.5765 148.063 41.0637C148.063 49.5508 141.186 56.4285 132.698 56.4285C124.211 56.4288 117.333 49.5508 117.333 41.0637Z" fill="url(#paint0_radial)"/>
<defs>
<radialGradient id="paint0_radial" cx="0" cy="0" r="1" gradientUnits="userSpaceOnUse" gradientTransform="translate(3.41378 5.27587) rotate(43.1085) scale(203.148 261.191)">
<stop stop-color="#00FFFF"/>
<stop offset="0.494792" stop-color="#0085FF"/>
<stop offset="1" stop-color="#8000FF"/>
</radialGradient>
</defs>
</svg>
