<?xml version="1.0" standalone="no"?>
<!DOCTYPE svg PUBLIC "-//W3C//DTD SVG 20010904//EN"
 "http://www.w3.org/TR/2001/REC-SVG-20010904/DTD/svg10.dtd">
<svg version="1.0" xmlns="http://www.w3.org/2000/svg"
 width="500.000000pt" height="500.000000pt" viewBox="0 0 500.000000 500.000000"
 preserveAspectRatio="xMidYMid meet">
<metadata>
Created by potrace 1.14, written by Peter Selinger 2001-2017
</metadata>
<g transform="translate(0.000000,500.000000) scale(0.100000,-0.100000)"
fill="#000000" stroke="none">
<path d="M0 2500 l0 -2500 2500 0 2500 0 0 2500 0 2500 -2500 0 -2500 0 0
-2500z m1794 2031 c94 -95 108 -112 97 -125 -8 -9 -18 -16 -23 -16 -6 0 -43
32 -82 70 l-73 70 -6 -542 c-4 -298 -7 -1183 -7 -1967 l0 -1426 80 80 c76 75
81 79 97 62 17 -16 12 -23 -95 -130 l-112 -112 -112 112 c-107 107 -112 114
-95 130 16 17 21 13 95 -60 l79 -78 6 512 c4 282 7 1170 7 1973 l0 1461 -80
-80 c-73 -73 -81 -78 -96 -63 -12 12 -14 20 -5 36 11 20 200 202 210 202 4 0
55 -49 115 -109z m-794 -396 c41 -9 116 -36 166 -60 192 -93 294 -262 294
-490 -1 -280 -145 -466 -425 -547 -70 -20 -102 -23 -255 -23 -152 0 -185 3
-255 23 -277 80 -417 264 -416 547 1 310 177 507 501 560 105 18 287 13 390
-10z m2850 -920 c0 -219 4 -375 9 -375 5 0 19 20 31 45 130 269 569 317 783
85 30 -32 67 -84 81 -114 54 -113 56 -138 56 -703 l0 -523 -200 0 -200 0 0
468 c0 275 -4 482 -10 502 -5 20 -23 56 -39 82 -87 136 -336 137 -438 0 -61
-81 -63 -98 -63 -599 l0 -453 -200 0 -200 0 0 980 0 980 195 0 195 0 0 -375z
m-1435 -630 c82 -283 152 -520 156 -526 4 -6 11 -9 15 -6 5 3 77 239 159 526
l150 521 213 0 c116 0 212 -1 212 -3 0 -2 -115 -331 -255 -732 -140 -400 -255
-730 -255 -732 0 -1 -102 -3 -228 -3 l-228 0 -203 583 c-112 320 -228 651
-257 735 l-53 152 212 0 212 0 150 -515z m-1375 315 c273 -79 420 -268 420
-540 0 -283 -155 -477 -440 -549 -221 -56 -498 -25 -665 74 -112 66 -196 180
-230 312 -18 67 -20 229 -4 305 44 212 207 360 459 413 101 22 363 13 460 -15z
m390 -1465 l0 -175 -490 0 c-385 0 -490 -3 -490 -12 0 -7 36 -73 80 -146 44
-73 80 -135 80 -138 0 -2 -65 -4 -144 -4 l-144 0 -101 164 -101 164 0 155 c0
84 3 157 7 160 3 4 298 7 655 7 l648 0 0 -175z"/>
<path d="M690 3790 c-197 -19 -300 -91 -300 -210 0 -84 60 -147 173 -182 61
-20 94 -23 222 -23 129 0 160 3 223 23 198 62 232 255 60 343 -84 43 -235 62
-378 49z"/>
<path d="M614 2555 c-146 -26 -224 -97 -224 -202 0 -132 138 -204 392 -204
219 -1 342 47 384 148 67 159 -100 275 -391 272 -49 0 -122 -7 -161 -14z"/>
</g>
</svg>
